<?xml version="1.0" encoding="utf-8"?>
<!-- Generator: Adobe Illustrator 25.1.0, SVG Export Plug-In . SVG Version: 6.00 Build 0)  -->
<svg version="1.1" id="Layer_1" xmlns="http://www.w3.org/2000/svg" xmlns:xlink="http://www.w3.org/1999/xlink" x="0px" y="0px"
	 viewBox="0 0 250 58" style="enable-background:new 0 0 250 58;" xml:space="preserve">
<style type="text/css">
	.st0{fill:#00FF9F;}
</style>
<rect x="1.67" y="0" class="st0" width="41.86" height="15.7"/>
<polygon class="st0" points="1.67,57.58 17.38,57.58 17.38,36.63 43.53,36.63 43.53,20.92 1.67,20.92 "/>
<polyline class="st0" points="51.26,0 48.76,0 48.76,57.56 64.46,57.56 64.46,22.86 51.26,0 "/>
<polygon class="st0" points="89.89,30.31 72.36,0 56.66,0 89.89,57.56 97.77,43.91 123.12,0 107.42,0 "/>
<polygon class="st0" points="128.2,27.25 145.73,57.56 161.43,57.56 128.2,0 120.32,13.65 94.97,57.56 110.66,57.56 "/>
<path class="st0" d="M188.54,36.29c4.61-1.19,8.01-5.37,8.01-10.34V10.68c0-5.9-4.78-10.68-10.68-10.68h0l-52.32,0l9.11,15.7h36.62
	c0.9,0,1.63,0.73,1.63,1.63v1.9c0,0.94-0.76,1.7-1.7,1.7h-18.01h-15.47l15.47,26.95V36.63l11.91,0l12.06,20.89h15.68l-12.26-21.24
	L188.54,36.29z"/>
<path class="st0" d="M236.62,57.56h-30.36l-9.02-15.7h37.84c0.85,0,1.53-0.69,1.53-1.53l0-1.97c0-0.95-0.77-1.73-1.73-1.73l-20.37,0
	h-4.58c-4.59,0-8.32-3.72-8.32-8.32V8.32c0-4.59,3.72-8.32,8.32-8.32l4.58,0l34.7,0l-9.04,15.7h-23.81c-1.03,0-1.86,0.83-1.86,1.86
	v1.5c0,1.03,0.84,1.87,1.87,1.87h20.23h4.58c4.59,0,8.32,3.72,8.32,8.32v19.99c0,4.59-3.72,8.32-8.32,8.32H236.62"/>
</svg>
